<?xml version="1.0" encoding="utf-8"?>
<!-- Generator: Adobe Illustrator 23.0.3, SVG Export Plug-In . SVG Version: 6.00 Build 0)  -->
<svg version="1.1" xmlns="http://www.w3.org/2000/svg" xmlns:xlink="http://www.w3.org/1999/xlink" x="0px" y="0px"
	 viewBox="0 0 1920 1080" style="enable-background:new 0 0 1920 1080;" xml:space="preserve">
<style type="text/css">
	.st0{fill:none;}
	.st1{fill:#C06C84;}
	.st2{stroke:#FFFFFF;stroke-miterlimit:10;}
	.st3{fill:url(#SVGID_1_);}
	.st4{fill:url(#SVGID_2_);}
	.st5{fill:url(#SVGID_3_);}
	.st6{fill:url(#SVGID_4_);}
	.st7{fill:url(#SVGID_5_);}
	.st8{fill:url(#SVGID_6_);}
	.st9{fill:url(#SVGID_7_);}
	.st10{fill:#F67280;}
</style>
<pattern  width="72" height="72" patternUnits="userSpaceOnUse" id="Sticks_15" viewBox="29.06 -99.69 72 72" style="overflow:visible;">
	<g>
		<rect x="29.06" y="-99.69" class="st0" width="72" height="72"/>
		<g>
			
				<rect x="104.48" y="-37.83" transform="matrix(0.8908 -0.4544 0.4544 0.8908 21.596 45.2816)" class="st1" width="1.03" height="31.09"/>
		</g>
		<g>
			
				<rect x="86.53" y="-42.25" transform="matrix(0.5705 -0.8213 0.8213 0.5705 59.3226 60.0239)" class="st1" width="1.03" height="31.09"/>
			
				<rect x="79.85" y="-15.42" transform="matrix(0.4544 -0.8908 0.8908 0.4544 65.3256 76.8441)" class="st1" width="31.09" height="1.03"/>
			
				<rect x="92.17" y="-30.68" transform="matrix(0.9125 -0.4091 0.4091 0.9125 14.3017 36.5912)" class="st1" width="1.03" height="31.09"/>
			
				<rect x="31.54" y="-24.71" transform="matrix(0.9264 -0.3766 0.3766 0.9264 12.5784 15.9528)" class="st1" width="31.09" height="1.03"/>
			
				<rect x="51.81" y="-34.2" transform="matrix(0.8254 -0.5646 0.5646 0.8254 19.6726 26.2831)" class="st1" width="1.03" height="31.09"/>
			
				<rect x="70.33" y="-16.99" transform="matrix(0.5374 -0.8434 0.8434 0.5374 53.625 64.8027)" class="st1" width="31.09" height="1.03"/>
			<polygon class="st1" points="51.94,-2.54 66.07,-30.24 65.15,-30.71 51.02,-3.01 			"/>
			
				<rect x="32.48" y="-37.83" transform="matrix(0.8908 -0.4544 0.4544 0.8908 13.7321 12.5622)" class="st1" width="1.03" height="31.09"/>
			
				<rect x="65.35" y="-35.44" transform="matrix(0.9794 -0.2019 0.2019 0.9794 5.3725 12.8848)" class="st1" width="1.03" height="31.09"/>
			
				<rect x="59.36" y="-36.42" transform="matrix(0.4864 -0.8737 0.8737 0.4864 48.9883 41.5937)" class="st1" width="1.03" height="31.09"/>
			
				<rect x="20.2" y="-20.05" transform="matrix(0.1922 -0.9814 0.9814 0.1922 48.0522 19.3017)" class="st1" width="31.09" height="1.03"/>
			
				<rect x="44.48" y="-30.83" transform="matrix(0.9762 -0.2171 0.2171 0.9762 4.3909 9.4032)" class="st1" width="1.03" height="31.09"/>
		</g>
		<g>
			
				<rect x="7.85" y="-15.42" transform="matrix(0.4544 -0.8908 0.8908 0.4544 26.0413 12.7061)" class="st1" width="31.09" height="1.03"/>
		</g>
		<g>
			
				<rect x="95.9" y="-83.2" transform="matrix(0.9884 -0.1517 0.1517 0.9884 13.8341 15.9503)" class="st1" width="31.09" height="1.03"/>
			
				<rect x="104.36" y="-74.45" transform="matrix(0.9292 -0.3695 0.3695 0.9292 29.1863 34.5808)" class="st1" width="1.03" height="31.09"/>
			
				<rect x="95.8" y="-50.96" transform="matrix(0.9863 -0.1648 0.1648 0.9863 9.8383 17.663)" class="st1" width="31.09" height="1.03"/>
			
				<rect x="95.3" y="-32.96" transform="matrix(0.9171 -0.3987 0.3987 0.9171 22.1268 41.5021)" class="st1" width="31.09" height="1.03"/>
			
				<rect x="109.52" y="-108.61" transform="matrix(0.2736 -0.9618 0.9618 0.2736 169.4441 38.2364)" class="st1" width="1.03" height="31.09"/>
			
				<rect x="104.48" y="-109.83" transform="matrix(0.8908 -0.4544 0.4544 0.8908 54.3154 37.4177)" class="st1" width="1.03" height="31.09"/>
			
				<rect x="107.86" y="-53.42" transform="matrix(0.4864 -0.8737 0.8737 0.4864 88.7499 75.2385)" class="st1" width="1.03" height="31.09"/>
			
				<rect x="102.49" y="-86.33" transform="matrix(0.9717 -0.2364 0.2364 0.9717 19.6529 22.3428)" class="st1" width="1.03" height="31.09"/>
		</g>
		<g>
			
				<rect x="23.9" y="-83.2" transform="matrix(0.9884 -0.1517 0.1517 0.9884 13.0007 5.027)" class="st1" width="31.09" height="1.03"/>
			
				<rect x="73.06" y="-94.48" transform="matrix(0.9884 -0.1517 0.1517 0.9884 15.2814 12.3552)" class="st1" width="31.09" height="1.03"/>
			
				<rect x="86.53" y="-114.25" transform="matrix(0.5705 -0.8213 0.8213 0.5705 118.4574 29.0979)" class="st1" width="1.03" height="31.09"/>
			
				<rect x="30.92" y="-58.86" transform="matrix(0.8838 -0.4678 0.4678 0.8838 32.6883 14.9602)" class="st1" width="31.09" height="1.03"/>
			
				<rect x="75.39" y="-53.77" transform="matrix(0.8852 -0.4652 0.4652 0.8852 35.2136 36.1911)" class="st1" width="31.09" height="1.03"/>
			
				<rect x="79.85" y="-87.42" transform="matrix(0.4544 -0.8908 0.8908 0.4544 129.4636 37.5598)" class="st1" width="31.09" height="1.03"/>
			
				<rect x="74.57" y="-79.72" transform="matrix(0.8883 -0.4593 0.4593 0.8883 37.8674 27.3197)" class="st1" width="1.03" height="31.09"/>
			
				<rect x="94.33" y="-90.6" transform="matrix(0.9125 -0.4092 0.4092 0.9125 39.0094 32.2377)" class="st1" width="1.03" height="31.09"/>
			<polygon class="st1" points="58.53,-54.79 45.8,-26.42 44.87,-26.84 57.59,-55.21 			"/>
			
				<rect x="92.17" y="-102.68" transform="matrix(0.9125 -0.4091 0.4091 0.9125 43.7569 30.2905)" class="st1" width="1.03" height="31.09"/>
			
				<rect x="63.74" y="-49.85" transform="matrix(0.421 -0.9071 0.9071 0.421 90.6504 43.354)" class="st1" width="31.09" height="1.03"/>
			
				<rect x="29.32" y="-30.92" transform="matrix(0.6585 -0.7526 0.7526 0.6585 38.202 23.3804)" class="st1" width="31.09" height="1.03"/>
			
				<rect x="59.35" y="-40.72" transform="matrix(0.6525 -0.7578 0.7578 0.6525 56.4936 42.782)" class="st1" width="31.09" height="1.03"/>
			
				<rect x="36.98" y="-66.96" transform="matrix(0.9919 -0.1268 0.1268 0.9919 6.8235 4.3402)" class="st1" width="1.03" height="31.09"/>
			
				<rect x="43.5" y="-67.11" transform="matrix(0.3661 -0.9306 0.9306 0.3661 99.4057 12.7287)" class="st1" width="31.09" height="1.03"/>
			
				<rect x="29.43" y="-66.29" transform="matrix(0.7366 -0.6763 0.6763 0.7366 56.328 13.095)" class="st1" width="31.09" height="1.03"/>
			
				<rect x="31.58" y="-45.68" transform="matrix(0.5092 -0.8606 0.8606 0.5092 61.9985 18.3928)" class="st1" width="31.09" height="1.03"/>
			
				<rect x="32.36" y="-74.45" transform="matrix(0.9292 -0.3695 0.3695 0.9292 24.0909 7.9769)" class="st1" width="1.03" height="31.09"/>
			
				<rect x="32.03" y="-78.21" transform="matrix(0.5434 -0.8394 0.8394 0.5434 86.9454 4.4665)" class="st1" width="31.09" height="1.03"/>
			<polygon class="st1" points="83.28,-70.89 112.42,-60.05 112.06,-59.09 82.92,-69.92 			"/>
			
				<rect x="31.54" y="-96.71" transform="matrix(0.9264 -0.3766 0.3766 0.9264 39.6932 10.652)" class="st1" width="31.09" height="1.03"/>
			
				<rect x="82.13" y="-62.14" transform="matrix(0.3991 -0.9169 0.9169 0.3991 92.3786 47.7778)" class="st1" width="1.03" height="31.09"/>
			
				<rect x="74.29" y="-75.71" transform="matrix(0.9264 -0.3766 0.3766 0.9264 34.9321 28.2975)" class="st1" width="31.09" height="1.03"/>
			
				<rect x="51.81" y="-106.2" transform="matrix(0.8254 -0.5646 0.5646 0.8254 60.3241 13.7091)" class="st1" width="1.03" height="31.09"/>
			
				<rect x="71.69" y="-63.48" transform="matrix(0.9727 -0.2322 0.2322 0.9727 17.0087 18.5396)" class="st1" width="31.09" height="1.03"/>
			
				<rect x="23.8" y="-50.96" transform="matrix(0.9863 -0.1648 0.1648 0.9863 8.8534 5.7947)" class="st1" width="31.09" height="1.03"/>
			
				<rect x="23.3" y="-32.96" transform="matrix(0.9171 -0.3987 0.3987 0.9171 16.1565 12.7955)" class="st1" width="31.09" height="1.03"/>
			
				<rect x="66.75" y="-84.07" transform="matrix(0.8426 -0.5385 0.5385 0.8426 57.9442 31.1652)" class="st1" width="31.09" height="1.03"/>
			<polygon class="st1" points="58.29,-58.62 87.1,-46.91 86.71,-45.96 57.91,-57.66 			"/>
			<polygon class="st1" points="78.49,-30.59 99.23,-53.75 99.99,-53.06 79.26,-29.9 			"/>
			
				<rect x="37.52" y="-108.61" transform="matrix(0.2736 -0.9618 0.9618 0.2736 117.1451 -31.0158)" class="st1" width="1.03" height="31.09"/>
			
				<rect x="79.27" y="-52.61" transform="matrix(0.2736 -0.9618 0.9618 0.2736 93.6084 49.8178)" class="st1" width="1.03" height="31.09"/>
			
				<rect x="60.02" y="-95.36" transform="matrix(0.2736 -0.9618 0.9618 0.2736 120.7442 0.25)" class="st1" width="1.03" height="31.09"/>
			
				<rect x="49.62" y="-37.06" transform="matrix(0.8585 -0.5128 0.5128 0.8585 27.9589 28.2438)" class="st1" width="31.09" height="1.03"/>
			
				<rect x="61.08" y="-77.73" transform="matrix(0.146 -0.9893 0.9893 0.146 114.1128 7.8287)" class="st1" width="1.03" height="31.09"/>
			
				<rect x="49.68" y="-37.69" transform="matrix(0.2214 -0.9752 0.9752 0.2214 87.0437 34.6629)" class="st1" width="31.09" height="1.03"/>
			
				<rect x="68.83" y="-70.74" transform="matrix(0.1138 -0.9935 0.9935 0.1138 144.5476 21.5935)" class="st1" width="31.09" height="1.03"/>
			
				<rect x="47.76" y="-73.27" transform="matrix(0.5374 -0.8434 0.8434 0.5374 90.6472 19.7241)" class="st1" width="31.09" height="1.03"/>
			
				<rect x="70.33" y="-88.99" transform="matrix(0.5374 -0.8434 0.8434 0.5374 114.3464 31.4927)" class="st1" width="31.09" height="1.03"/>
			<polygon class="st1" points="51.94,-74.54 66.07,-102.24 65.15,-102.71 51.02,-75.01 			"/>
			
				<rect x="32.48" y="-109.83" transform="matrix(0.8908 -0.4544 0.4544 0.8908 46.4515 4.6983)" class="st1" width="1.03" height="31.09"/>
			
				<rect x="81.98" y="-38.94" transform="matrix(0.4593 -0.8883 0.8883 0.4593 86.859 65.8522)" class="st1" width="31.09" height="1.03"/>
			
				<rect x="65.35" y="-107.44" transform="matrix(0.9794 -0.2019 0.2019 0.9794 19.9059 11.4028)" class="st1" width="1.03" height="31.09"/>
			
				<rect x="71.08" y="-91.21" transform="matrix(0.3766 -0.9264 0.9264 0.3766 114.7255 19.1562)" class="st1" width="1.03" height="31.09"/>
			
				<rect x="95.22" y="-57.02" transform="matrix(0.9935 -0.1138 0.1138 0.9935 5.3433 10.6277)" class="st1" width="1.03" height="31.09"/>
			
				<rect x="41.81" y="-69.08" transform="matrix(0.6655 -0.7464 0.7464 0.6655 54.1131 13.6843)" class="st1" width="1.03" height="31.09"/>
			
				<rect x="63.09" y="-56.34" transform="matrix(0.6656 -0.7463 0.7463 0.6656 51.72 33.8311)" class="st1" width="1.03" height="31.09"/>
			
				<rect x="35.86" y="-53.42" transform="matrix(0.4864 -0.8737 0.8737 0.4864 51.7726 12.3305)" class="st1" width="1.03" height="31.09"/>
			
				<rect x="34.22" y="-37.1" transform="matrix(0.8852 -0.4651 0.4651 0.8852 22.7267 18.9509)" class="st1" width="31.09" height="1.03"/>
			
				<rect x="88.84" y="-49.03" transform="matrix(0.4864 -0.8737 0.8737 0.4864 75.1522 60.8741)" class="st1" width="1.03" height="31.09"/>
			
				<rect x="59.36" y="-108.42" transform="matrix(0.4864 -0.8737 0.8737 0.4864 111.8962 4.6164)" class="st1" width="1.03" height="31.09"/>
			
				<rect x="20.2" y="-92.05" transform="matrix(0.1922 -0.9814 0.9814 0.1922 118.7103 -38.8625)" class="st1" width="31.09" height="1.03"/>
			
				<rect x="76.82" y="-98.64" transform="matrix(0.9762 -0.217 0.217 0.9762 19.8781 14.8051)" class="st1" width="1.03" height="31.09"/>
			
				<rect x="45.36" y="-71.17" transform="matrix(0.9762 -0.2171 0.2171 0.9762 13.1673 8.6315)" class="st1" width="1.03" height="31.09"/>
			
				<rect x="44.48" y="-102.83" transform="matrix(0.9762 -0.2171 0.2171 0.9762 20.0191 7.6866)" class="st1" width="1.03" height="31.09"/>
			
				<rect x="69.48" y="-94.58" transform="matrix(0.9762 -0.2171 0.2171 0.9762 18.8244 13.3097)" class="st1" width="1.03" height="31.09"/>
			
				<rect x="84.2" y="-71.58" transform="matrix(0.6655 -0.7464 0.7464 0.6655 70.1615 44.4886)" class="st1" width="1.03" height="31.09"/>
			
				<rect x="43.02" y="-103.7" transform="matrix(0.6656 -0.7463 0.7463 0.6656 80.3525 3.0083)" class="st1" width="1.03" height="31.09"/>
			
				<rect x="30.49" y="-86.33" transform="matrix(0.9717 -0.2364 0.2364 0.9717 17.6122 5.3223)" class="st1" width="1.03" height="31.09"/>
		</g>
		<g>
			
				<rect x="1.06" y="-94.48" transform="matrix(0.9884 -0.1517 0.1517 0.9884 14.4479 1.4319)" class="st1" width="31.09" height="1.03"/>
			
				<rect x="3.39" y="-53.77" transform="matrix(0.8852 -0.4652 0.4652 0.8852 26.9487 2.6974)" class="st1" width="31.09" height="1.03"/>
			
				<rect x="7.85" y="-87.42" transform="matrix(0.4544 -0.8908 0.8908 0.4544 90.1793 -26.5782)" class="st1" width="31.09" height="1.03"/>
			
				<rect x="22.33" y="-90.6" transform="matrix(0.9125 -0.4092 0.4092 0.9125 32.707 2.7789)" class="st1" width="1.03" height="31.09"/>
			<polygon class="st1" points="11.28,-70.89 40.42,-60.05 40.06,-59.09 10.92,-69.92 			"/>
			
				<rect x="2.29" y="-75.71" transform="matrix(0.9264 -0.3766 0.3766 0.9264 29.6313 1.1826)" class="st1" width="31.09" height="1.03"/>
			
				<rect x="-0.31" y="-63.48" transform="matrix(0.9727 -0.2322 0.2322 0.9727 15.04 1.8176)" class="st1" width="31.09" height="1.03"/>
			
				<rect x="9.98" y="-38.94" transform="matrix(0.4593 -0.8883 0.8883 0.4593 47.9309 1.8972)" class="st1" width="31.09" height="1.03"/>
			
				<rect x="16.84" y="-49.03" transform="matrix(0.4864 -0.8737 0.8737 0.4864 38.175 -2.0339)" class="st1" width="1.03" height="31.09"/>
		</g>
		<g>
			
				<rect x="95.3" y="-104.96" transform="matrix(0.9171 -0.3987 0.3987 0.9171 50.8335 35.5319)" class="st1" width="31.09" height="1.03"/>
		</g>
		<g>
			<polygon class="st1" points="58.53,-126.79 45.8,-98.42 44.87,-98.84 57.59,-127.21 			"/>
			
				<rect x="29.32" y="-102.92" transform="matrix(0.6585 -0.7526 0.7526 0.6585 92.3865 -1.2061)" class="st1" width="31.09" height="1.03"/>
			
				<rect x="23.3" y="-104.96" transform="matrix(0.9171 -0.3987 0.3987 0.9171 44.8632 6.8252)" class="st1" width="31.09" height="1.03"/>
			
				<rect x="49.68" y="-109.69" transform="matrix(0.2214 -0.9752 0.9752 0.2214 157.2574 -21.3984)" class="st1" width="31.09" height="1.03"/>
			
				<rect x="81.98" y="-110.94" transform="matrix(0.4593 -0.8883 0.8883 0.4593 150.814 26.9242)" class="st1" width="31.09" height="1.03"/>
			
				<rect x="95.22" y="-129.02" transform="matrix(0.9935 -0.1138 0.1138 0.9935 13.539 10.1597)" class="st1" width="1.03" height="31.09"/>
			
				<rect x="88.84" y="-121.03" transform="matrix(0.4864 -0.8737 0.8737 0.4864 138.0601 23.8968)" class="st1" width="1.03" height="31.09"/>
		</g>
		<g>
			
				<rect x="9.98" y="-110.94" transform="matrix(0.4593 -0.8883 0.8883 0.4593 111.8859 -37.0308)" class="st1" width="31.09" height="1.03"/>
			
				<rect x="16.84" y="-121.03" transform="matrix(0.4864 -0.8737 0.8737 0.4864 101.0829 -39.0111)" class="st1" width="1.03" height="31.09"/>
		</g>
	</g>
</pattern>
<g id="Layer_2">
	<rect x="44.06" y="275.13" class="st2" width="1836.77" height="526.98"/>
</g>
<g id="Layer_1">
	<g>
		<pattern  id="SVGID_1_" xlink:href="#Sticks_15" patternTransform="matrix(1.3865 0 0 1.3865 2728.4731 2653.3572)">
		</pattern>
		<path class="st3" d="M140.69,599.12v134.77h52.01V547.09L140.69,599.12z"/>
		<pattern  id="SVGID_2_" xlink:href="#Sticks_15" patternTransform="matrix(1.3865 0 0 1.3865 2728.4731 2653.3572)">
		</pattern>
		<path class="st4" d="M481.56,491.02c-16.5-19.85-38.57-29.78-66.22-29.78c-27.63,0-48.75,13.99-63.32,41.97v44.98
			c11.9-23.13,28.64-34.68,50.26-34.68c18.26,0,31.61,5.31,40.07,15.96c8.46,10.63,12.7,23.4,12.7,38.31v166.1h52.01V565.77
			C506.56,535.79,498.06,510.87,481.56,491.02z"/>
		<pattern  id="SVGID_3_" xlink:href="#Sticks_15" patternTransform="matrix(1.3865 0 0 1.3865 2728.4731 2653.3572)">
		</pattern>
		<path class="st5" d="M787.24,645.19c-6.7,8.03-11.13,13.23-13.31,15.57c-17.59,17.43-38.79,26.14-63.58,26.14
			c-6.92,0-13.19-0.35-18.81-1.05v53.71c6.13,0.75,12.4,1.12,18.81,1.12c39.54,0,73.29-13.99,101.27-41.97
			c5.7-5.7,14.92-17.35,27.65-34.93L787.24,645.19z M811.61,496.17c-4.02-4.02-8.12-7.79-12.31-11.3
			c-25.46-20.44-55.11-30.67-88.96-30.67c-6.42,0-12.69,0.37-18.81,1.12v54.25c6.02-1.23,12.3-1.84,18.81-1.84
			c20.44,0,33.59,2.26,39.46,6.78l-58.27,58.4v73.75L799.8,538.39L825.93,512C818.06,503.13,813.29,497.85,811.61,496.17z"/>
		<pattern  id="SVGID_4_" xlink:href="#Sticks_15" patternTransform="matrix(1.3865 0 0 1.3865 2728.4731 2653.3572)">
		</pattern>
		<path class="st6" d="M1001.92,554.97l-52.01,52.02h111.22v-52.02H1001.92z"/>
		<pattern  id="SVGID_5_" xlink:href="#Sticks_15" patternTransform="matrix(1.3865 0 0 1.3865 2728.4731 2653.3572)">
		</pattern>
		<path class="st7" d="M1219.95,681.61l48.5-84.88h-59.87l-78.09,137.15h204.8v-52.27H1219.95z"/>
		<pattern  id="SVGID_6_" xlink:href="#Sticks_15" patternTransform="matrix(1.3865 0 0 1.3865 2728.4731 2653.3572)">
		</pattern>
		<path class="st8" d="M1417.47,598.82v135.06h52.01V546.82L1417.47,598.82z"/>
		<pattern  id="SVGID_7_" xlink:href="#Sticks_15" patternTransform="matrix(1.3865 0 0 1.3865 2728.4731 2653.3572)">
		</pattern>
		<path class="st9" d="M1773.53,331.83v402.05h52.27V331.83H1773.53z"/>
	</g>
	<g>
		<polygon class="st10" points="239.18,475.32 239.18,527.32 192.7,527.32 192.7,547.09 140.69,599.12 140.69,527.32 94.2,527.32 
			94.2,475.32 140.69,475.32 140.69,378.32 192.7,378.32 192.7,475.32 		"/>
		<rect x="299.75" y="331.83" class="st10" width="52.27" height="402.05"/>
		<path class="st10" d="M647.15,533.99c-17.5,17.5-26.26,38.66-26.26,63.45c0,20.27,2.26,33.41,6.79,39.45l63.85-63.97v73.75
			l-28.67,28.67c6.09,5.38,15.64,8.89,28.67,10.51v53.71c-31.39-3.81-58.79-17.43-82.19-40.85
			c-27.98-27.98-41.97-61.73-41.97-101.27c0-39.53,13.99-73.29,41.97-101.27c23.4-23.42,50.8-37.03,82.19-40.85v54.25
			C674.81,512.99,660.03,521.11,647.15,533.99z"/>
		<polygon class="st10" points="1001.92,554.97 949.91,606.99 893.28,606.99 893.28,554.97 		"/>
		<polygon class="st10" points="1337.81,475.32 1268.45,596.73 1208.58,596.73 1248.09,527.32 1141.8,527.32 1141.8,475.32 		"/>
		<path class="st10" d="M1480.04,405.45c0,10.23-3.6,18.86-10.81,25.89c-7.2,7.04-15.83,10.55-25.87,10.55
			c-9.9,0-18.44-3.51-25.64-10.55c-7.21-7.03-10.8-15.65-10.8-25.89c0-10.2,3.59-18.84,10.8-25.87c7.2-7.04,15.74-10.57,25.64-10.57
			c10.04,0,18.68,3.52,25.87,10.57C1476.43,386.61,1480.04,395.25,1480.04,405.45z"/>
		<polygon class="st10" points="1469.47,475.32 1469.47,546.82 1417.47,598.82 1417.47,475.32 		"/>
		<path class="st10" d="M1622.39,534.12c-17.51,17.58-26.26,38.7-26.26,63.32c0,24.79,8.75,45.91,26.26,63.32
			c17.5,17.43,38.66,26.14,63.45,26.14s45.89-8.71,63.32-26.14c13.23-13.23,21.37-27.9,24.37-43.97v84.92
			c-25.12,25.97-54.36,38.96-87.7,38.96c-39.54,0-73.25-13.99-101.14-41.97c-27.9-27.98-41.84-61.73-41.84-101.27
			c0-39.53,13.95-73.29,41.84-101.27c27.9-27.98,61.6-41.97,101.14-41.97c33.33,0,62.57,12.99,87.7,38.96v85.19
			c-3.01-16.25-11.15-31-24.37-44.23c-17.43-17.59-38.53-26.38-63.32-26.38S1639.89,516.52,1622.39,534.12z"/>
	</g>
</g>
</svg>
